<svg width="245" height="67" viewBox="0 0 245 67" fill="none" xmlns="http://www.w3.org/2000/svg">
<path d="M24.2853 0.887604C21.551 4.89958 22.6215 8.43669 24.6199 12.4265C21.5287 8.40119 20.5117 4.89515 24.2853 0.887604Z" fill="#D38E29"/>
<path d="M32.147 7.32275L31.5895 6.9899C33.1217 4.89515 33.7729 4.04527 33.0949 1.22046C34.5513 3.94097 33.6168 5.14368 32.147 7.32275Z" fill="#D38E29"/>
<path d="M27.798 19.7492C27.798 19.6117 27.5683 19.5739 27.575 19.3609C27.604 18.3912 27.8761 17.4725 28.021 16.5317C33.8376 16.6005 44.8396 17.8076 49.3759 21.5245C52.3288 23.9432 51.9653 25.6097 48.7069 27.4049C45.3101 20.5237 34.645 19.8358 27.798 19.7492Z" fill="#311311"/>
<path d="M26.0138 16.5317C26.0361 16.6315 26.3974 16.7114 26.5714 18.3624C26.7319 19.9001 26.3506 19.5651 26.3483 19.6383C18.5178 19.6383 8.94547 20.4216 2.87465 25.8515C1.03244 23.6791 3.25603 22.0459 5.10493 20.9697C10.1833 18.0162 20.0857 16.6582 26.0138 16.5317Z" fill="#311311"/>
<path d="M25.5677 14.9784C25.8978 15.1958 25.9179 16.0834 26.0138 16.5317C20.0857 16.6581 10.1833 18.0162 5.10492 20.9697C3.25602 22.0459 1.03243 23.6791 2.87464 25.8515C8.94546 20.4216 18.5178 19.6383 26.3483 19.6383C26.3483 19.7226 26.9371 20.9564 26.4041 21.1916C25.9268 21.4024 19.227 20.8432 16.3678 23.4106C11.5883 27.7044 22.287 30.4693 22.8356 30.7334C22.9561 30.7911 22.791 31.1639 23.0587 31.2881C23.6631 31.5699 34.0116 30.5092 35.9943 30.0677C38.5234 29.5062 45.6045 27.3693 41.4585 24.0763C38.5747 21.7863 31.3018 21.0829 27.6307 21.1916C27.3832 19.96 27.798 19.8247 27.798 19.7492C34.645 19.8358 45.3101 20.5237 48.7069 27.4048C51.9653 25.6097 52.3288 23.9432 49.3759 21.5244C44.8396 17.8076 33.8376 16.6005 28.021 16.5317C28.1058 15.9791 28.1169 15.4244 28.2441 14.8674C33.4874 14.8585 51.662 16.7336 53.0001 23.0223C53.3436 24.6355 52.9734 27.6556 53.1117 29.4574C66.19 29.6638 66.8346 42.2656 58.5201 49.8169C54.0172 53.9065 47.875 55.8548 41.9603 56.7513C45.2299 58.1892 45.3994 61.4312 42.6851 63.5748C36.9622 68.0927 19.8404 67.9995 13.3569 64.1295C10.4643 62.4009 9.30453 59.4075 12.4091 57.1951C6.59028 52.3799 2.45535 45.4854 0.923146 38.1116C0.189384 34.5767 -0.48639 26.6548 0.47709 23.3551C2.24793 17.295 20.0299 14.5967 25.5677 14.9784Z" fill="#F9FAFC"/>
<path d="M45.4172 30.6224C43.2382 37.011 38.4007 42.5763 32.5373 45.9336C24.7626 50.385 11.1088 53.3429 5.04915 44.8241C2.11634 39.159 0.804932 32.1979 1.59222 25.8515C8.22284 35.1248 36.3511 34.2194 45.4172 30.6224Z" fill="#B06D42"/>
<path d="M56.1225 31.621C58.3595 32.0359 60.4604 33.6358 61.3637 35.7261C61.0024 35.6174 61.7763 37.2107 61.8098 37.5568C61.9101 38.6109 61.6403 41.5311 60.9176 42.3277C59.2427 42.7138 59.8449 41.6487 59.8025 41.5511C59.4546 40.7655 59.1803 41.0762 58.7431 40.8299C58.5714 40.7322 58.9929 40.1242 57.6837 40.608C58.6963 35.7084 52.6768 35.147 50.9929 37.4459C50.5179 38.0961 49.396 42.6761 47.4245 46.3219C42.3974 55.6174 36.8641 59.1856 26.0695 58.9149C15.3887 58.6464 9.78405 53.9731 5.04916 44.8241C11.1088 53.3429 24.7626 50.385 32.5373 45.9336C38.4007 42.5762 43.2382 37.011 45.4172 30.6224C47.4557 29.8125 49.4317 28.4589 51.2717 27.2939V32.0648C52.5496 31.723 53.8477 31.51 55.1747 31.621C55.2282 31.6254 55.5003 32.0315 56.1225 31.621Z" fill="#461316"/>
<path d="M40.2318 58.1382C41.6235 57.9207 43.8404 59.6804 41.57 61.6886C36.9354 65.7916 17.2176 66.3419 12.7436 60.6346C12.9466 56.9688 15.1099 58.957 17.0369 59.4696C24.0244 61.3291 31.556 61.287 38.4476 59.0258C38.9784 58.8505 40.1337 58.1537 40.2318 58.1382Z" fill="#461316"/>
<path d="M61.3637 35.7262C65.4072 45.0771 51.033 54.3282 42.8524 54.0885C43.8627 53.3185 45.7963 49.5373 46.0305 49.3731C46.3851 49.1246 50.2903 48.5143 53.8365 45.7117C55.1925 44.6399 57.3336 42.3078 57.6837 40.608C58.9929 40.1243 58.5714 40.7323 58.7431 40.8299C59.1802 41.0762 59.4546 40.7655 59.8025 41.5511C59.8449 41.6487 59.2427 42.7138 60.9176 42.3277C61.6402 41.5311 61.9101 38.6109 61.8097 37.5569C61.7763 37.2107 61.0024 35.6174 61.3637 35.7262Z" fill="#461316"/>
<path d="M56.1225 31.621C55.5003 32.0315 55.2282 31.6254 55.1747 31.621C53.8476 31.51 52.5496 31.7231 51.2717 32.0648V27.2939C49.4317 28.4589 47.4557 29.8125 45.4172 30.6224C36.3511 34.2194 8.22284 35.1248 1.59222 25.8515C1.88885 23.4506 1.72158 24.6977 2.48434 25.6851C5.25657 29.271 15.895 31.3658 20.2708 31.7319C27.8939 32.3688 46.2223 31.9538 51.4947 25.6296L51.4389 31.7874C51.5549 31.9916 53.4841 31.1328 56.1225 31.621Z" fill="#461316"/>
<path d="M10.7921 26.4063C11.4679 27.3516 8.79157 27.9729 8.72913 27.7932L10.7921 26.4063Z" fill="#C78247"/>
<path d="M31.5895 6.9899L32.147 7.32275C30.3963 9.919 29.299 10.2385 28.2441 14.8674C28.1169 15.4244 28.1058 15.9791 28.021 16.5317C27.8761 17.4725 27.604 18.3912 27.575 19.3609C27.5683 19.5739 27.798 19.6117 27.798 19.7492C27.798 19.8247 27.3832 19.96 27.6307 21.1916C31.3018 21.0829 38.5747 21.7863 41.4585 24.0763C45.6045 27.3693 38.5234 29.5062 35.9943 30.0677C34.0116 30.5092 23.6631 31.5699 23.0587 31.2881C22.791 31.1639 22.9561 30.7911 22.8356 30.7334C22.287 30.4693 11.5883 27.7044 16.3678 23.4106C19.227 20.8432 25.9268 21.4024 26.4041 21.1916C26.9371 20.9564 26.3461 19.7226 26.3483 19.6383C26.3483 19.5651 26.7319 19.9001 26.5713 18.3624C26.3974 16.7114 26.0361 16.6315 26.0138 16.5317C25.9179 16.0834 25.8978 15.1958 25.5677 14.9784C25.5677 13.7091 24.9076 12.5108 24.7871 11.2615C24.2697 5.88483 26.2569 2.84922 30.6416 0L30.9204 0.0554754C23.6452 5.4033 25.7484 10.3672 26.7386 18.085C27.4724 15.9813 27.3809 13.6736 28.2441 11.5944C29.0001 9.76811 30.4654 8.52768 31.5895 6.9899Z" fill="#D38E29"/>
<path d="M23.5047 22.8559C26.8256 22.4431 26.1275 24.8308 26.2926 24.9639C27.8984 22.0304 33.8108 22.2567 35.7155 24.4647C36.3377 27.3938 27.1378 26.6659 23.7277 30.2896C25.1573 26.6304 23.0319 27.5757 21.2187 25.2413C21.1005 23.9676 22.3472 23.0001 23.5047 22.8559Z" fill="#F9FAFC"/>
<path d="M241.121 43.4019C241.527 43.0519 241.926 42.877 242.318 42.877C242.542 42.877 242.745 42.9329 242.927 43.0449C243.109 43.1569 243.312 43.3319 243.536 43.5698C243.746 43.8918 243.893 44.1577 243.977 44.3677C244.075 44.5636 244.124 44.7596 244.124 44.9556C244.124 45.3755 243.914 45.7744 243.494 46.1523C242.822 46.7122 242.094 47.2161 241.31 47.6641C240.526 48.098 239.707 48.4689 238.854 48.7769C238 49.0848 237.118 49.3158 236.208 49.4697C235.298 49.6377 234.395 49.7217 233.5 49.7217C232.366 49.7217 231.302 49.5747 230.308 49.2808C229.314 49.0008 228.425 48.5949 227.642 48.063C226.872 47.5311 226.221 46.8942 225.689 46.1523C225.157 45.3965 224.779 44.5496 224.555 43.6118C224.429 43.2199 224.31 42.9679 224.198 42.856C224.1 42.73 223.932 42.667 223.694 42.667C223.176 42.667 222.778 42.541 222.498 42.2891C222.218 42.0371 222.078 41.6732 222.078 41.1973C222.078 41.0013 222.092 40.8753 222.12 40.8193L222.162 40.3994C222.232 39.8955 222.365 39.5316 222.561 39.3076C222.771 39.0837 223.092 38.9717 223.526 38.9717H223.841C224.429 38.9717 224.842 38.6987 225.08 38.1528C225.514 37.187 226.067 36.3052 226.739 35.5073C227.411 34.7095 228.167 34.0306 229.006 33.4707C229.846 32.8968 230.742 32.4559 231.694 32.1479C232.66 31.826 233.639 31.665 234.633 31.665C235.669 31.665 236.635 31.819 237.531 32.127C238.441 32.4209 239.231 32.8338 239.903 33.3657C240.575 33.8976 241.1 34.5205 241.478 35.2344C241.87 35.9482 242.066 36.7181 242.066 37.5439C242.066 38.1178 241.954 38.6427 241.73 39.1187C241.506 39.5946 241.184 40.0145 240.764 40.3784C240.344 40.7284 239.833 41.0153 239.231 41.2393C238.644 41.4632 237.972 41.6102 237.216 41.6802L229.93 42.415C229.65 42.415 229.419 42.485 229.237 42.625C229.069 42.765 228.985 42.9539 228.985 43.1919C228.985 43.5558 229.118 43.9058 229.384 44.2417C229.664 44.5776 230.028 44.8786 230.476 45.1445C230.938 45.3965 231.463 45.5994 232.051 45.7534C232.653 45.9074 233.269 45.9844 233.898 45.9844C234.5 45.9844 235.116 45.9284 235.746 45.8164C236.39 45.6904 237.02 45.5155 237.636 45.2915C238.266 45.0675 238.875 44.8016 239.462 44.4937C240.05 44.1717 240.603 43.8078 241.121 43.4019ZM236.439 37.9849C236.649 37.9429 236.831 37.8449 236.985 37.6909C237.139 37.5229 237.216 37.32 237.216 37.082C237.216 36.8721 237.139 36.6761 236.985 36.4941C236.831 36.3122 236.621 36.1512 236.355 36.0112C236.089 35.8573 235.781 35.7383 235.431 35.6543C235.081 35.5703 234.71 35.5283 234.318 35.5283C233.744 35.5283 233.157 35.6123 232.555 35.7803C231.953 35.9482 231.407 36.1722 230.917 36.4521C230.427 36.7181 230.028 37.019 229.72 37.355C229.412 37.6769 229.258 37.9989 229.258 38.3208C229.258 38.6427 229.454 38.8037 229.846 38.8037C230.084 38.8037 230.469 38.7757 231.001 38.7197C231.533 38.6637 232.121 38.6007 232.765 38.5308C233.409 38.4468 234.059 38.3558 234.717 38.2578C235.375 38.1598 235.949 38.0688 236.439 37.9849Z" fill="#481416"/>
<path d="M208.283 36.4312C207.961 36.4032 207.702 36.1932 207.506 35.8013C207.31 35.4093 207.212 34.9754 207.212 34.4995C207.212 34.2756 207.233 34.0586 207.275 33.8486C207.303 33.6247 207.359 33.4287 207.443 33.2607C207.527 33.0928 207.632 32.9598 207.758 32.8618C207.884 32.7498 208.031 32.6938 208.199 32.6938C208.717 32.6938 209.312 32.6799 209.984 32.6519C210.656 32.6099 211.377 32.5679 212.146 32.5259C212.538 32.4839 212.755 32.2529 212.797 31.833C212.923 29.8034 213.098 28.0537 213.322 26.584C213.546 25.1143 213.819 23.8755 214.141 22.8677C214.463 21.8459 214.827 21.02 215.233 20.3901C215.653 19.7603 216.115 19.2773 216.619 18.9414C216.773 18.8294 216.955 18.7174 217.165 18.6055C217.375 18.4795 217.57 18.4165 217.752 18.4165C218.102 18.4165 218.466 18.5075 218.844 18.6895C219.236 18.8574 219.593 19.0814 219.915 19.3613C220.251 19.6273 220.524 19.9352 220.734 20.2852C220.944 20.6211 221.049 20.957 221.049 21.293C221.049 21.4189 221.021 21.5239 220.965 21.6079C220.909 21.6779 220.839 21.7479 220.755 21.8179C220.209 22.2238 219.726 22.6787 219.306 23.1826C218.886 23.6865 218.529 24.3024 218.235 25.0303C217.941 25.7581 217.696 26.633 217.5 27.6548C217.305 28.6766 217.158 29.9084 217.06 31.3501C217.06 31.5741 217.095 31.742 217.165 31.854C217.249 31.952 217.396 32.001 217.605 32.001C218.151 32.001 218.697 31.959 219.243 31.875C219.803 31.791 220.335 31.707 220.839 31.623C221.343 31.5251 221.819 31.4341 222.267 31.3501C222.715 31.2661 223.113 31.2241 223.463 31.2241C223.715 31.2241 223.897 31.3781 224.009 31.686C224.135 31.98 224.198 32.3439 224.198 32.7778C224.198 33.0298 224.177 33.2887 224.135 33.5547C224.093 33.8206 224.023 34.0586 223.925 34.2686C223.841 34.4785 223.729 34.6605 223.589 34.8145C223.449 34.9544 223.274 35.0384 223.064 35.0664L217.479 35.6543C217.186 35.6963 217.004 35.8153 216.934 36.0112C216.878 36.2072 216.85 36.4801 216.85 36.8301C216.85 39.9235 216.927 42.583 217.081 44.8086C217.235 47.0342 217.403 48.9028 217.584 50.4146C217.78 51.9403 217.955 53.137 218.109 54.0049C218.263 54.8867 218.34 55.5236 218.34 55.9155C218.34 56.2095 218.221 56.4754 217.983 56.7134C217.759 56.9513 217.465 57.1543 217.102 57.3223C216.752 57.4902 216.367 57.6162 215.947 57.7002C215.527 57.7982 215.135 57.8472 214.771 57.8472C214.421 57.8472 214.106 57.7842 213.826 57.6582C213.56 57.5462 213.406 57.3503 213.364 57.0703C213.224 56.0905 213.105 55.0127 213.007 53.8369C212.909 52.6751 212.825 51.3804 212.755 49.9526C212.699 48.5389 212.657 46.9922 212.629 45.3125C212.601 43.6188 212.587 41.7642 212.587 39.7485C212.587 39.2306 212.587 38.7267 212.587 38.2368C212.587 37.7469 212.601 37.257 212.629 36.7671C212.629 36.3472 212.398 36.1372 211.937 36.1372L208.283 36.4312Z" fill="#481416"/>
<path d="M199.36 29.6494C200.13 29.6494 200.872 29.7684 201.585 30.0063C202.299 30.2443 202.929 30.5732 203.475 30.9932C204.021 31.4131 204.455 31.917 204.777 32.5049C205.113 33.0928 205.281 33.7437 205.281 34.4575C205.281 34.7515 205.211 35.0384 205.071 35.3184C204.945 35.5843 204.77 35.8223 204.546 36.0322C204.322 36.2282 204.063 36.3892 203.769 36.5151C203.489 36.6271 203.195 36.6831 202.887 36.6831C202.859 36.6831 202.831 36.6901 202.803 36.7041C202.789 36.7041 202.768 36.7041 202.74 36.7041C202.712 36.7181 202.684 36.7251 202.656 36.7251L202.74 38.4048C202.796 40.4064 203.076 41.8691 203.58 42.793C204.098 43.7168 204.77 44.1787 205.596 44.1787C205.89 44.1787 206.149 44.1507 206.373 44.0947C206.611 44.0387 206.827 43.9757 207.023 43.9058C207.233 43.8218 207.429 43.7518 207.611 43.6958C207.793 43.6398 207.975 43.6118 208.157 43.6118C208.479 43.6118 208.759 43.7518 208.997 44.0317C209.249 44.3117 209.375 44.6476 209.375 45.0396C209.375 45.4315 209.221 45.8234 208.913 46.2153C208.619 46.6073 208.227 46.9642 207.737 47.2861C207.247 47.5941 206.694 47.846 206.079 48.042C205.463 48.238 204.84 48.3359 204.21 48.3359C203.118 48.3359 202.159 47.888 201.333 46.9922C200.508 46.0824 199.92 44.7526 199.57 43.0029C199.486 42.723 199.374 42.583 199.234 42.583C199.066 42.583 198.919 42.667 198.793 42.835C197.407 44.5846 195.931 45.9004 194.363 46.7822C192.795 47.6501 191.248 48.084 189.723 48.084C189.009 48.084 188.365 47.979 187.791 47.769C187.217 47.5591 186.727 47.2651 186.321 46.8872C185.929 46.4953 185.621 46.0264 185.397 45.4805C185.188 44.9206 185.083 44.2977 185.083 43.6118C185.083 42.646 185.292 41.6312 185.712 40.5674C186.146 39.5036 186.727 38.4538 187.455 37.418C188.183 36.3822 189.023 35.3953 189.975 34.4575C190.94 33.5197 191.948 32.6938 192.998 31.98C194.062 31.2661 195.14 30.6992 196.231 30.2793C197.323 29.8594 198.366 29.6494 199.36 29.6494ZM198.667 36.9141C198.919 36.4382 199.15 36.0952 199.36 35.8853C199.57 35.6613 199.871 35.5143 200.263 35.4443C200.571 35.4023 200.725 35.3044 200.725 35.1504C200.725 35.0384 200.683 34.9194 200.599 34.7935C200.333 34.4295 200.053 34.1146 199.759 33.8486C199.465 33.5687 199.073 33.4287 198.583 33.4287C198.051 33.4287 197.456 33.5827 196.798 33.8906C196.14 34.1986 195.469 34.6115 194.783 35.1294C194.111 35.6333 193.446 36.2142 192.788 36.8721C192.144 37.516 191.57 38.1808 191.066 38.8667C190.562 39.5526 190.157 40.2314 189.849 40.9033C189.541 41.5752 189.387 42.1771 189.387 42.709C189.387 43.1849 189.513 43.5558 189.765 43.8218C190.031 44.0877 190.388 44.2207 190.835 44.2207C191.983 44.2207 193.236 43.6118 194.594 42.394C195.951 41.1763 197.309 39.3496 198.667 36.9141Z" fill="#481416"/>
<path d="M178.973 30.6782C179.701 30.6782 180.407 30.7832 181.093 30.9932C181.779 31.2031 182.381 31.4901 182.899 31.854C183.431 32.2039 183.858 32.6099 184.18 33.0718C184.502 33.5197 184.663 33.9816 184.663 34.4575C184.663 34.7655 184.6 35.0664 184.474 35.3604C184.348 35.6403 184.18 35.8923 183.97 36.1162C183.76 36.3262 183.522 36.5011 183.256 36.6411C182.99 36.7671 182.71 36.8301 182.416 36.8301C182.094 36.8301 181.8 36.7111 181.534 36.4731C181.268 36.2212 180.981 35.9482 180.673 35.6543C180.379 35.3464 180.043 35.0734 179.666 34.8354C179.302 34.5835 178.861 34.4575 178.343 34.4575C177.839 34.4575 177.384 34.5765 176.978 34.8145C176.572 35.0524 176.229 35.3883 175.949 35.8223C175.683 36.2422 175.473 36.7461 175.319 37.334C175.179 37.9079 175.109 38.5378 175.109 39.2236C175.109 41.1833 175.48 42.681 176.222 43.7168C176.964 44.7386 178.028 45.2495 179.414 45.2495C180.071 45.2495 180.631 45.1445 181.093 44.9346C181.569 44.7246 181.982 44.4937 182.332 44.2417C182.696 43.9897 183.025 43.7588 183.319 43.5488C183.613 43.3389 183.914 43.2339 184.222 43.2339C184.39 43.2339 184.558 43.2899 184.726 43.4019C184.894 43.4998 185.041 43.6328 185.167 43.8008C185.306 43.9548 185.418 44.1297 185.502 44.3257C185.6 44.5216 185.649 44.7176 185.649 44.9136C185.649 45.3755 185.418 45.8514 184.957 46.3413C184.509 46.8312 183.928 47.2791 183.214 47.6851C182.5 48.077 181.702 48.3989 180.82 48.6509C179.952 48.9028 179.106 49.0288 178.28 49.0288C177.174 49.0288 176.159 48.8118 175.235 48.3779C174.312 47.958 173.514 47.3701 172.842 46.6143C172.17 45.8444 171.645 44.9276 171.267 43.8638C170.903 42.8 170.721 41.6242 170.721 40.3364C170.721 38.9367 170.924 37.6489 171.33 36.4731C171.75 35.2974 172.324 34.2826 173.052 33.4287C173.794 32.5609 174.668 31.889 175.676 31.4131C176.684 30.9232 177.783 30.6782 178.973 30.6782Z" fill="#481416"/>
<path d="M163.352 47.6221C162.946 47.6221 162.561 47.5591 162.197 47.4331C161.847 47.3071 161.539 47.1392 161.273 46.9292C161.007 46.7052 160.797 46.4463 160.643 46.1523C160.503 45.8584 160.433 45.5435 160.433 45.2075C160.433 44.6196 160.664 44.1437 161.126 43.7798C161.602 43.4159 162.225 43.2339 162.995 43.2339C163.359 43.2339 163.708 43.3039 164.044 43.4438C164.394 43.5698 164.695 43.7448 164.947 43.9688C165.213 44.1927 165.423 44.4517 165.577 44.7456C165.731 45.0396 165.808 45.3475 165.808 45.6694C165.808 46.2853 165.584 46.7682 165.136 47.1182C164.702 47.4541 164.107 47.6221 163.352 47.6221Z" fill="#481416"/>
<path d="M145.631 48.5669C144.791 48.5669 143.951 48.3639 143.111 47.958C142.271 47.5381 141.467 46.9712 140.697 46.2573C139.927 45.5435 139.213 44.7036 138.555 43.7378C137.897 42.758 137.323 41.7082 136.833 40.5884C136.344 39.4546 135.959 38.2718 135.679 37.04C135.399 35.8083 135.259 34.5765 135.259 33.3447C135.259 32.3929 135.455 31.714 135.847 31.3081C136.239 30.8882 136.875 30.6782 137.757 30.6782C138.863 30.6782 139.479 31.1331 139.605 32.043C139.857 33.9746 140.207 35.7173 140.655 37.271C141.103 38.8247 141.628 40.1475 142.229 41.2393C142.845 42.3311 143.524 43.1709 144.266 43.7588C145.022 44.3467 145.82 44.6406 146.66 44.6406C147.262 44.6406 147.828 44.4937 148.36 44.1997C148.892 43.8918 149.354 43.4648 149.746 42.9189C149.886 42.709 149.977 42.506 150.019 42.3101C150.075 42.1141 150.117 41.8901 150.145 41.6382C150.215 40.6444 150.292 39.6715 150.376 38.7197C150.474 37.7539 150.565 36.7881 150.649 35.8223C150.677 35.4023 150.733 35.0594 150.817 34.7935C150.901 34.5275 151.027 34.3175 151.195 34.1636C151.363 34.0096 151.58 33.9046 151.846 33.8486C152.126 33.7926 152.476 33.7646 152.896 33.7646C153.371 33.7646 153.777 33.8346 154.113 33.9746C154.449 34.1006 154.722 34.3175 154.932 34.6255C155.142 34.9194 155.289 35.3114 155.373 35.8013C155.471 36.2772 155.52 36.8721 155.52 37.5859C155.52 38.2018 155.471 38.7407 155.373 39.2026C155.289 39.6506 155.184 40.0775 155.058 40.4834C154.946 40.8753 154.834 41.2673 154.722 41.6592C154.624 42.0371 154.561 42.457 154.533 42.9189C154.463 44.0807 154.4 45.0885 154.344 45.9424C154.288 46.7822 154.239 47.5031 154.197 48.105C154.169 48.7069 154.141 49.2248 154.113 49.6587C154.099 50.0926 154.085 50.4775 154.071 50.8135C154.057 51.1634 154.05 51.4924 154.05 51.8003C154.05 52.1082 154.05 52.4442 154.05 52.8081C154.05 53.466 154.078 54.1799 154.134 54.9497C154.19 55.7336 154.246 56.4824 154.302 57.1963C154.372 57.9102 154.435 58.54 154.491 59.0859C154.547 59.6318 154.575 60.0098 154.575 60.2197C154.575 60.4857 154.491 60.7376 154.323 60.9756C154.155 61.2135 153.931 61.4235 153.651 61.6055C153.371 61.7874 153.042 61.9274 152.665 62.0254C152.287 62.1374 151.888 62.1934 151.468 62.1934C151.104 62.1934 150.81 62.0674 150.586 61.8154C150.376 61.5775 150.257 61.2555 150.229 60.8496C150.187 60.3177 150.152 59.6668 150.124 58.897C150.096 58.1411 150.068 57.3293 150.04 56.4614C150.012 55.6076 149.991 54.7327 149.977 53.8369C149.977 52.9551 149.97 52.1292 149.956 51.3594C149.942 50.6035 149.935 49.9386 149.935 49.3647C149.935 48.7909 149.935 48.3779 149.935 48.126C149.935 47.874 149.907 47.6991 149.851 47.6011C149.795 47.4891 149.69 47.4331 149.536 47.4331C149.452 47.4331 149.34 47.4611 149.2 47.5171C149.06 47.5591 148.899 47.6361 148.717 47.748C148.227 48.042 147.73 48.252 147.227 48.3779C146.723 48.5039 146.191 48.5669 145.631 48.5669Z" fill="#481416"/>
<path d="M120.541 36.4312C120.149 36.8091 119.736 36.998 119.302 36.998C119.106 36.998 118.903 36.9561 118.693 36.8721C118.483 36.7741 118.238 36.6131 117.958 36.3892C117.44 35.9972 117.181 35.5843 117.181 35.1504C117.181 34.8704 117.342 34.5415 117.664 34.1636C117.972 33.7856 118.378 33.3937 118.882 32.9878C119.386 32.5679 119.953 32.141 120.583 31.707C121.226 31.2731 121.877 30.8602 122.535 30.4683C123.193 30.0763 123.83 29.7194 124.446 29.3975C125.062 29.0755 125.594 28.8096 126.042 28.5996C126.307 28.4876 126.552 28.4036 126.776 28.3477C127 28.2917 127.231 28.2637 127.469 28.2637C127.945 28.2637 128.351 28.3477 128.687 28.5156C129.037 28.6696 129.331 28.8866 129.569 29.1665C129.807 29.4465 130.003 29.7684 130.157 30.1323C130.325 30.4823 130.458 30.8532 130.556 31.2451C130.668 31.623 130.759 32.015 130.829 32.4209C130.899 32.8128 130.969 33.1768 131.039 33.5127C131.151 34.0866 131.263 34.7515 131.375 35.5073C131.5 36.2492 131.612 37.026 131.71 37.8379C131.808 38.6357 131.899 39.4336 131.983 40.2314C132.081 41.0153 132.165 41.7502 132.235 42.436C132.305 43.1079 132.354 43.6958 132.382 44.1997C132.424 44.6896 132.445 45.0396 132.445 45.2495C132.445 46.2293 131.962 46.8032 130.997 46.9712C130.465 47.0832 130.115 47.1462 129.947 47.1602C129.779 47.1742 129.667 47.1812 129.611 47.1812C129.177 47.1812 128.827 47.0552 128.561 46.8032C128.309 46.5513 128.162 46.1733 128.12 45.6694C127.966 43.7938 127.791 41.9321 127.595 40.0845C127.399 38.2228 127.098 36.3752 126.692 34.5415C126.608 34.1356 126.461 33.8276 126.251 33.6177C126.042 33.4077 125.79 33.3027 125.496 33.3027C125.216 33.3027 124.866 33.4147 124.446 33.6387C124.026 33.8626 123.585 34.1356 123.123 34.4575C122.661 34.7795 122.199 35.1224 121.737 35.4863C121.289 35.8363 120.89 36.1512 120.541 36.4312Z" fill="#481416"/>
<path d="M103.156 36.4312C102.764 36.8091 102.351 36.998 101.917 36.998C101.721 36.998 101.518 36.9561 101.308 36.8721C101.098 36.7741 100.853 36.6131 100.573 36.3892C100.055 35.9972 99.7964 35.5843 99.7964 35.1504C99.7964 34.8704 99.9574 34.5415 100.279 34.1636C100.587 33.7856 100.993 33.3937 101.497 32.9878C102.001 32.5679 102.568 32.141 103.198 31.707C103.842 31.2731 104.493 30.8602 105.15 30.4683C105.808 30.0763 106.445 29.7194 107.061 29.3975C107.677 29.0755 108.209 28.8096 108.657 28.5996C108.923 28.4876 109.168 28.4036 109.392 28.3477C109.616 28.2917 109.847 28.2637 110.084 28.2637C110.56 28.2637 110.966 28.3477 111.302 28.5156C111.652 28.6696 111.946 28.8866 112.184 29.1665C112.422 29.4465 112.618 29.7684 112.772 30.1323C112.94 30.4823 113.073 30.8532 113.171 31.2451C113.283 31.623 113.374 32.015 113.444 32.4209C113.514 32.8128 113.584 33.1768 113.654 33.5127C113.766 34.0866 113.878 34.7515 113.99 35.5073C114.116 36.2492 114.228 37.026 114.326 37.8379C114.424 38.6357 114.515 39.4336 114.599 40.2314C114.697 41.0153 114.781 41.7502 114.851 42.436C114.921 43.1079 114.97 43.6958 114.998 44.1997C115.04 44.6896 115.061 45.0396 115.061 45.2495C115.061 46.2293 114.578 46.8032 113.612 46.9712C113.08 47.0832 112.73 47.1462 112.562 47.1602C112.394 47.1742 112.282 47.1812 112.226 47.1812C111.792 47.1812 111.442 47.0552 111.176 46.8032C110.924 46.5513 110.777 46.1733 110.735 45.6694C110.581 43.7938 110.406 41.9321 110.21 40.0845C110.014 38.2228 109.714 36.3752 109.308 34.5415C109.224 34.1356 109.077 33.8276 108.867 33.6177C108.657 33.4077 108.405 33.3027 108.111 33.3027C107.831 33.3027 107.481 33.4147 107.061 33.6387C106.641 33.8626 106.2 34.1356 105.738 34.4575C105.276 34.7795 104.814 35.1224 104.353 35.4863C103.905 35.8363 103.506 36.1512 103.156 36.4312Z" fill="#481416"/>
<path d="M76.3228 43.8218C76.0848 43.8218 75.9028 43.7028 75.7769 43.4648C75.6649 43.2269 75.6089 42.891 75.6089 42.457C75.6089 42.387 75.6089 42.3101 75.6089 42.2261C75.6089 42.1281 75.6229 41.9461 75.6509 41.6802C75.6929 40.6724 76.1898 40.0845 77.1416 39.9165L77.6245 39.8745C77.9465 39.8325 78.1984 39.7345 78.3804 39.5806C78.5623 39.4126 78.6953 39.1816 78.7793 38.8877C79.0173 38.0898 79.2552 37.285 79.4932 36.4731C79.7311 35.6613 79.9831 34.8564 80.249 34.0586C80.389 33.6107 80.529 33.1348 80.6689 32.6309C80.8229 32.113 80.9839 31.6021 81.1519 31.0981C81.3338 30.5942 81.5368 30.0973 81.7607 29.6074C81.9987 29.1175 82.2646 28.6696 82.5586 28.2637C82.6846 28.0957 82.8595 27.9207 83.0835 27.7388C83.3075 27.5568 83.5594 27.3958 83.8394 27.2559C84.1333 27.1019 84.4412 26.9829 84.7632 26.8989C85.0991 26.8009 85.4281 26.752 85.75 26.752C86.1699 26.752 86.5828 26.8849 86.9888 27.1509C87.5347 27.5288 88.0736 27.9837 88.6055 28.5156C89.1374 29.0475 89.7323 29.7264 90.3901 30.5522C91.048 31.3781 91.8109 32.3789 92.6787 33.5547C93.5465 34.7165 94.5894 36.1232 95.8071 37.7749C95.9891 37.9849 96.1781 38.1458 96.374 38.2578C96.584 38.3558 96.8289 38.4048 97.1089 38.4048H98.3057C98.7956 38.4048 99.1735 38.5238 99.4395 38.7617C99.7194 38.9857 99.8594 39.3006 99.8594 39.7065C99.8594 39.7905 99.8524 39.8885 99.8384 40.0005C99.8384 40.1125 99.8174 40.2244 99.7754 40.3364L99.3765 41.5122C99.3485 41.6242 99.3275 41.7222 99.3135 41.8062C99.2995 41.8901 99.2925 41.9741 99.2925 42.0581C99.2925 42.3521 99.3905 42.653 99.5864 42.9609L101.833 46.0264C102.085 46.4043 102.211 46.7612 102.211 47.0972C102.211 47.6011 101.924 48.042 101.35 48.4199L100.552 48.9868C100.356 49.1128 100.167 49.2108 99.9854 49.2808C99.8174 49.3507 99.6424 49.3857 99.4604 49.3857C99.2085 49.3857 98.9705 49.3088 98.7466 49.1548C98.5366 49.0148 98.3337 48.8188 98.1377 48.5669C97.4658 47.6151 96.7869 46.6772 96.1011 45.7534C95.4292 44.8296 94.7433 43.9128 94.0435 43.0029C93.7215 42.555 93.2946 42.3311 92.7627 42.3311C91.055 42.401 89.3613 42.499 87.6816 42.625C86.016 42.737 84.3433 42.877 82.6636 43.0449C82.0617 43.1009 81.6838 43.4229 81.5298 44.0107L80.585 47.4751C80.333 48.3989 79.7731 48.8608 78.9053 48.8608H78.5693L77.9185 48.7769C77.4425 48.7349 77.0786 48.5879 76.8267 48.3359C76.5887 48.084 76.4697 47.755 76.4697 47.3491C76.4697 47.2651 76.4767 47.1742 76.4907 47.0762C76.5047 46.9782 76.5257 46.8732 76.5537 46.7612C76.6237 46.4813 76.6937 46.1943 76.7637 45.9004C76.8477 45.6064 76.9316 45.3195 77.0156 45.0396C77.0436 44.9276 77.0646 44.8296 77.0786 44.7456C77.0926 44.6476 77.0996 44.5566 77.0996 44.4727C77.0996 44.0387 76.9316 43.8218 76.5957 43.8218H76.3228ZM86.3169 32.7358C86.1769 32.6099 86.0509 32.5049 85.939 32.4209C85.827 32.3369 85.708 32.2949 85.582 32.2949C85.2321 32.2949 84.9871 32.5399 84.8472 33.0298C84.5672 33.8556 84.2943 34.6745 84.0283 35.4863C83.7764 36.2842 83.5174 37.103 83.2515 37.9429C83.2235 38.0129 83.2095 38.0758 83.2095 38.1318C83.2095 38.1878 83.2095 38.2508 83.2095 38.3208C83.2095 38.8387 83.4824 39.0977 84.0283 39.0977H84.2383C85.0781 38.9857 85.918 38.9017 86.7578 38.8457C87.5977 38.7757 88.4375 38.7197 89.2773 38.6777C89.5573 38.6497 89.7743 38.5798 89.9282 38.4678C90.0962 38.3418 90.1802 38.1808 90.1802 37.9849C90.1802 37.8029 90.0962 37.5859 89.9282 37.334C89.3403 36.5501 88.7454 35.7803 88.1436 35.0244C87.5557 34.2546 86.9468 33.4917 86.3169 32.7358Z" fill="#481416"/>
</svg>
