<?xml version="1.0" encoding="UTF-8"?>
<svg id="Layer_2" data-name="Layer 2" xmlns="http://www.w3.org/2000/svg" viewBox="0 0 371.25 91.56">
  <defs>
    <style>
      .cls-1 {
        fill: #461316;
      }

      .cls-1, .cls-2, .cls-3, .cls-4, .cls-5, .cls-6, .cls-7 {
        stroke-width: 0px;
      }

      .cls-2 {
        fill: #decba7;
      }

      .cls-3 {
        fill: #f9fafc;
      }

      .cls-4 {
        fill: #311311;
      }

      .cls-5 {
        fill: #b06d42;
      }

      .cls-8 {
        fill: #3c2415;
        font-family: GochiHand-Regular, 'Gochi Hand';
        font-size: 75.76px;
      }

      .cls-6 {
        fill: #d38e29;
      }

      .cls-7 {
        fill: #c78247;
      }
    </style>
  </defs>
  <g id="Layer_1-2" data-name="Layer 1">
    <g>
      <text class="cls-8" transform="translate(73.46 60.67)"><tspan x="0" y="0">A11y.cafe</tspan></text>
      <g>
        <path class="cls-6" d="M24.11.89c-2.71,4-1.65,7.53.33,11.51-3.07-4.02-4.08-7.51-.33-11.51Z"/>
        <path class="cls-6" d="M31.91,7.31l-.55-.33c1.52-2.09,2.17-2.94,1.49-5.76,1.45,2.71.52,3.91-.94,6.09Z"/>
        <path class="cls-4" d="M27.6,19.71c0-.14-.23-.18-.22-.39.03-.97.3-1.88.44-2.82,5.77.07,16.7,1.27,21.2,4.98,2.93,2.41,2.57,4.08-.66,5.87-3.37-6.87-13.96-7.55-20.76-7.64Z"/>
        <path class="cls-4" d="M25.83,16.5c.02.1.38.18.55,1.83.16,1.53-.22,1.2-.22,1.27-7.77,0-17.28.78-23.3,6.2-1.83-2.17.38-3.8,2.21-4.87,5.04-2.95,14.87-4.3,20.76-4.43Z"/>
        <g>
          <path class="cls-3" d="M25.38,14.95c.33.22.35,1.1.44,1.55-5.89.13-15.72,1.48-20.76,4.43-1.84,1.07-4.04,2.7-2.21,4.87,6.03-5.42,15.53-6.2,23.3-6.2,0,.08.58,1.32.06,1.55-.47.21-7.13-.35-9.96,2.21-4.74,4.28,5.88,7.04,6.42,7.31.12.06-.04.43.22.55.6.28,10.87-.78,12.84-1.22,2.51-.56,9.54-2.69,5.42-5.98-2.86-2.28-10.08-2.99-13.73-2.88-.25-1.23.17-1.36.17-1.44,6.8.09,17.39.77,20.76,7.64,3.23-1.79,3.6-3.45.66-5.87-4.5-3.71-15.43-4.91-21.2-4.98.08-.55.1-1.1.22-1.66,5.2,0,23.25,1.86,24.58,8.14.34,1.61-.03,4.62.11,6.42,12.98.2,13.62,12.78,5.37,20.31-4.47,4.08-10.57,6.02-16.44,6.92,3.25,1.44,3.41,4.67.72,6.81-5.68,4.51-22.68,4.42-29.12.55-2.87-1.72-4.02-4.71-.94-6.92-5.78-4.81-9.88-11.68-11.4-19.04-.73-3.53-1.4-11.43-.44-14.72,1.76-6.05,19.41-8.74,24.91-8.36Z"/>
          <g>
            <path class="cls-5" d="M45.09,30.56c-2.16,6.37-6.96,11.93-12.79,15.28-7.72,4.44-21.27,7.39-27.29-1.11-2.91-5.65-4.21-12.6-3.43-18.93,6.58,9.25,34.51,8.35,43.51,4.76Z"/>
            <path class="cls-1" d="M55.72,31.55c2.22.41,4.31,2.01,5.2,4.1-.36-.11.41,1.48.44,1.83.1,1.05-.17,3.97-.89,4.76-1.66.38-1.06-.68-1.11-.77-.35-.78-.62-.47-1.05-.72-.17-.1.25-.7-1.05-.22,1.01-4.89-4.97-5.45-6.64-3.16-.47.65-1.59,5.22-3.54,8.86-4.99,9.28-10.48,12.84-21.2,12.57-10.6-.27-16.17-4.93-20.87-14.06,6.01,8.5,19.57,5.55,27.29,1.11,5.82-3.35,10.62-8.9,12.79-15.28,2.02-.81,3.98-2.16,5.81-3.32v4.76c1.27-.34,2.56-.55,3.87-.44.05,0,.32.41.94,0Z"/>
            <path class="cls-1" d="M39.94,58.01c1.38-.22,3.58,1.54,1.33,3.54-4.6,4.09-24.18,4.64-28.62-1.05.2-3.66,2.35-1.67,4.26-1.16,6.94,1.86,14.41,1.81,21.26-.44.53-.17,1.67-.87,1.77-.89Z"/>
            <path class="cls-1" d="M60.92,35.65c4.01,9.33-10.26,18.56-18.38,18.32,1-.77,2.92-4.54,3.16-4.71.35-.25,4.23-.86,7.75-3.65,1.35-1.07,3.47-3.4,3.82-5.09,1.3-.48.88.12,1.05.22.43.25.71-.06,1.05.72.04.1-.56,1.16,1.11.77.72-.79.99-3.71.89-4.76-.03-.35-.8-1.93-.44-1.83Z"/>
            <path class="cls-1" d="M55.72,31.55c-.62.41-.89,0-.94,0-1.32-.11-2.61.1-3.87.44v-4.76c-1.83,1.16-3.79,2.51-5.81,3.32-9,3.59-36.93,4.49-43.51-4.76.3-2.39.13-1.15.89-.17,2.75,3.58,13.31,5.67,17.66,6.03,7.57.64,25.76.22,31-6.09l-.06,6.14c.11.2,2.03-.65,4.65-.17Z"/>
            <path class="cls-2" d="M53.12,37.97c5.97.4-.57,7.16-4.43,8.52,1.58-2.23,2.81-8.25,4.43-8.52Z"/>
            <path class="cls-7" d="M10.71,26.35c.67.94-1.99,1.56-2.05,1.38l2.05-1.38Z"/>
          </g>
        </g>
        <g>
          <path class="cls-6" d="M31.36,6.97l.55.33c-1.74,2.59-2.83,2.91-3.87,7.53-.13.56-.14,1.11-.22,1.66-.14.94-.41,1.86-.44,2.82,0,.21.22.25.22.39,0,.08-.41.21-.17,1.44,3.64-.11,10.86.59,13.73,2.88,4.12,3.28-2.91,5.42-5.42,5.98-1.97.44-12.24,1.5-12.84,1.22-.27-.12-.1-.5-.22-.55-.54-.26-11.17-3.02-6.42-7.31,2.84-2.56,9.49-2,9.96-2.21.53-.23-.06-1.47-.06-1.55,0-.07.38.26.22-1.27-.17-1.65-.53-1.73-.55-1.83-.1-.45-.11-1.33-.44-1.55,0-1.27-.66-2.46-.77-3.71-.51-5.37,1.46-8.39,5.81-11.24l.28.06c-7.22,5.34-5.13,10.29-4.15,17.99.73-2.1.64-4.4,1.49-6.48.75-1.82,2.2-3.06,3.32-4.59Z"/>
          <path class="cls-3" d="M23.33,22.81c3.3-.41,2.6,1.97,2.77,2.1,1.59-2.93,7.46-2.7,9.35-.5.62,2.92-8.52,2.2-11.9,5.81,1.42-3.65-.69-2.71-2.49-5.04-.12-1.27,1.12-2.24,2.27-2.38Z"/>
        </g>
      </g>
    </g>
  </g>
</svg>