<?xml version="1.0" encoding="UTF-8"?>
<svg id="Layer_2" data-name="Layer 2" xmlns="http://www.w3.org/2000/svg" viewBox="0 0 220.17 57.77">
  <defs>
    <style>
      .cls-1 {
        fill: #461316;
      }

      .cls-1, .cls-2, .cls-3, .cls-4, .cls-5, .cls-6 {
        stroke-width: 0px;
      }

      .cls-2 {
        fill: #f9fafc;
      }

      .cls-7 {
        fill: #603913;
        font-family: GochiHand-Regular, 'Gochi Hand';
        font-size: 41.02px;
      }

      .cls-3 {
        fill: #311311;
      }

      .cls-4 {
        fill: #b06d42;
      }

      .cls-5 {
        fill: #d38e29;
      }

      .cls-6 {
        fill: #c78247;
      }
    </style>
  </defs>
  <g id="Layer_1-2" data-name="Layer 1">
    <g>
      <text class="cls-7" transform="translate(58.94 41.04)"><tspan x="0" y="0">A11y.cafe</tspan></text>
      <g>
        <path class="cls-5" d="M20.21.74c-2.28,3.36-1.38,6.31.28,9.65-2.57-3.37-3.42-6.3-.28-9.65Z"/>
        <path class="cls-5" d="M26.75,6.12l-.46-.28c1.27-1.75,1.82-2.46,1.25-4.83,1.21,2.27.43,3.28-.79,5.1Z"/>
        <path class="cls-3" d="M23.13,16.52c0-.11-.19-.15-.19-.32.02-.81.25-1.58.37-2.37,4.84.06,14,1.07,17.77,4.18,2.46,2.02,2.15,3.42-.56,4.92-2.83-5.75-11.7-6.33-17.4-6.4Z"/>
        <path class="cls-3" d="M21.65,13.83c.02.08.32.15.46,1.53.13,1.29-.18,1.01-.19,1.07-6.52,0-14.48.66-19.53,5.2-1.53-1.82.32-3.18,1.86-4.08,4.23-2.47,12.47-3.61,17.4-3.71Z"/>
        <g>
          <path class="cls-2" d="M21.28,12.53c.28.18.29.92.37,1.3-4.93.11-13.17,1.24-17.4,3.71-1.54.9-3.39,2.27-1.86,4.08,5.05-4.54,13.02-5.2,19.53-5.2,0,.07.49,1.1.05,1.3-.4.18-5.97-.29-8.35,1.86-3.98,3.59,4.93,5.9,5.38,6.12.1.05-.04.36.19.46.5.24,9.11-.65,10.76-1.02,2.1-.47,8-2.26,4.55-5.01-2.4-1.91-8.45-2.5-11.51-2.41-.21-1.03.14-1.14.14-1.21,5.7.07,14.57.65,17.4,6.4,2.71-1.5,3.01-2.89.56-4.92-3.77-3.11-12.93-4.12-17.77-4.18.07-.46.08-.93.19-1.39,4.36,0,19.49,1.56,20.6,6.82.29,1.35-.02,3.87.09,5.38,10.88.17,11.42,10.71,4.5,17.03-3.75,3.42-8.86,5.05-13.78,5.8,2.72,1.2,2.86,3.91.6,5.71-4.76,3.78-19.01,3.7-24.41.46-2.41-1.44-3.37-3.95-.79-5.8-4.84-4.03-8.28-9.79-9.56-15.96-.61-2.96-1.17-9.58-.37-12.34,1.47-5.07,16.27-7.32,20.88-7.01Z"/>
          <g>
            <path class="cls-4" d="M37.79,25.61c-1.81,5.34-5.84,10-10.72,12.81-6.47,3.72-17.83,6.2-22.87-.93-2.44-4.74-3.53-10.56-2.88-15.87,5.52,7.76,28.93,7,36.47,3.99Z"/>
            <path class="cls-1" d="M46.7,26.45c1.86.35,3.61,1.69,4.36,3.43-.3-.09.34,1.24.37,1.53.08.88-.14,3.32-.74,3.99-1.39.32-.89-.57-.93-.65-.29-.66-.52-.4-.88-.6-.14-.08.21-.59-.88-.19.84-4.1-4.17-4.57-5.57-2.64-.4.54-1.33,4.37-2.97,7.42-4.18,7.78-8.79,10.76-17.77,10.53-8.89-.22-13.55-4.13-17.49-11.79,5.04,7.13,16.41,4.65,22.87.93,4.88-2.81,8.91-7.46,10.72-12.81,1.7-.68,3.34-1.81,4.87-2.78v3.99c1.06-.29,2.14-.46,3.25-.37.04,0,.27.34.79,0Z"/>
            <path class="cls-1" d="M33.48,48.63c1.16-.18,3,1.29,1.11,2.97-3.86,3.43-20.27,3.89-23.99-.88.17-3.07,1.97-1.4,3.57-.97,5.82,1.56,12.08,1.52,17.82-.37.44-.15,1.4-.73,1.48-.74Z"/>
            <path class="cls-1" d="M51.06,29.88c3.37,7.82-8.6,15.56-15.4,15.36.84-.64,2.45-3.81,2.64-3.94.3-.21,3.55-.72,6.5-3.06,1.13-.9,2.91-2.85,3.2-4.27,1.09-.4.74.1.88.19.36.21.59-.05.88.6.04.08-.47.97.93.65.6-.67.83-3.11.74-3.99-.03-.29-.67-1.62-.37-1.53Z"/>
            <path class="cls-1" d="M46.7,26.45c-.52.34-.75,0-.79,0-1.1-.09-2.18.08-3.25.37v-3.99c-1.53.97-3.17,2.11-4.87,2.78-7.54,3.01-30.95,3.77-36.47-3.99.25-2.01.11-.97.74-.14,2.31,3,11.16,4.75,14.8,5.06,6.34.53,21.6.19,25.98-5.1l-.05,5.15c.1.17,1.7-.55,3.9-.14Z"/>
            <path class="cls-6" d="M8.98,22.09c.56.79-1.66,1.31-1.72,1.16l1.72-1.16Z"/>
          </g>
        </g>
        <g>
          <path class="cls-5" d="M26.29,5.85l.46.28c-1.46,2.17-2.37,2.44-3.25,6.31-.11.47-.11.93-.19,1.39-.12.79-.35,1.56-.37,2.37,0,.18.19.21.19.32,0,.06-.34.18-.14,1.21,3.05-.09,9.11.5,11.51,2.41,3.45,2.75-2.44,4.54-4.55,5.01-1.65.37-10.26,1.26-10.76,1.02-.22-.1-.09-.42-.19-.46-.46-.22-9.36-2.53-5.38-6.12,2.38-2.15,7.95-1.68,8.35-1.86.44-.2-.05-1.23-.05-1.3,0-.06.32.22.19-1.07-.14-1.38-.45-1.45-.46-1.53-.08-.37-.1-1.12-.37-1.3,0-1.06-.55-2.06-.65-3.11-.43-4.5,1.22-7.04,4.87-9.42l.23.05c-6.05,4.47-4.3,8.62-3.48,15.08.61-1.76.54-3.69,1.25-5.43.63-1.53,1.85-2.56,2.78-3.85Z"/>
          <path class="cls-2" d="M19.56,19.12c2.76-.35,2.18,1.65,2.32,1.76,1.34-2.45,6.26-2.26,7.84-.42.52,2.45-7.14,1.84-9.98,4.87,1.19-3.06-.58-2.27-2.09-4.22-.1-1.07.94-1.87,1.9-2Z"/>
        </g>
      </g>
    </g>
  </g>
</svg>