<?xml version="1.0" encoding="UTF-8"?>
<svg id="Layer_2" data-name="Layer 2" xmlns="http://www.w3.org/2000/svg" viewBox="0 0 286.96 301.94">
  <defs>
    <style>
      .cls-1 {
        fill: #461316;
      }

      .cls-1, .cls-2, .cls-3, .cls-4, .cls-5, .cls-6 {
        stroke-width: 0px;
      }

      .cls-2 {
        fill: #f9fafc;
      }

      .cls-3 {
        fill: #311311;
      }

      .cls-4 {
        fill: #b06d42;
      }

      .cls-5 {
        fill: #d38e29;
      }

      .cls-6 {
        fill: #c78247;
      }
    </style>
  </defs>
  <g id="Layer_1-2" data-name="Layer 1">
    <g>
      <path class="cls-5" d="M108.89,4c-12.26,18.08-7.46,34.02,1.5,52-13.86-18.14-18.42-33.94-1.5-52Z"/>
      <path class="cls-5" d="M144.14,33l-2.5-1.5c6.87-9.44,9.79-13.27,6.75-26,6.53,12.26,2.34,17.68-4.25,27.5Z"/>
      <path class="cls-3" d="M124.64,89c0-.62-1.03-.79-1-1.75.13-4.37,1.35-8.51,2-12.75,26.08.31,75.41,5.75,95.75,22.5,13.24,10.9,11.61,18.41-3,26.5-15.23-31.01-63.05-34.11-93.75-34.5Z"/>
      <path class="cls-3" d="M116.64,74.5c.1.45,1.72.81,2.5,8.25.72,6.93-.99,5.42-1,5.75-35.11,0-78.03,3.53-105.25,28-8.26-9.79,1.71-17.15,10-22,22.77-13.31,67.17-19.43,93.75-20Z"/>
      <g>
        <path class="cls-2" d="M114.64,67.5c1.48.98,1.57,4.98,2,7-26.58.57-70.98,6.69-93.75,20-8.29,4.85-18.26,12.21-10,22,27.22-24.47,70.14-28,105.25-28,0,.38,2.64,5.94.25,7-2.14.95-32.18-1.57-45,10-21.43,19.35,26.54,31.81,29,33,.54.26-.2,1.94,1,2.5,2.71,1.27,49.11-3.51,58-5.5,11.34-2.53,43.09-12.16,24.5-27-12.93-10.32-45.54-13.49-62-13-1.11-5.55.75-6.16.75-6.5,30.7.39,78.52,3.49,93.75,34.5,14.61-8.09,16.24-15.6,3-26.5-20.34-16.75-69.67-22.19-95.75-22.5.38-2.49.43-4.99,1-7.5,23.51-.04,105,8.41,111,36.75,1.54,7.27-.12,20.88.5,29,58.64.93,61.53,57.72,24.25,91.75-20.19,18.43-47.73,27.21-74.25,31.25,14.66,6.48,15.42,21.09,3.25,30.75-25.66,20.36-102.43,19.94-131.5,2.5-12.97-7.79-18.17-21.28-4.25-31.25-26.09-21.7-44.63-52.77-51.5-86-3.29-15.93-6.32-51.63-2-66.5,7.94-27.31,87.67-39.47,112.5-37.75Z"/>
        <g>
          <path class="cls-4" d="M203.64,138c-9.77,28.79-31.46,53.87-57.75,69-34.86,20.06-96.08,33.39-123.25-5-13.15-25.53-19.03-56.9-15.5-85.5,29.73,41.79,155.85,37.71,196.5,21.5Z"/>
          <path class="cls-1" d="M251.64,142.5c10.03,1.87,19.45,9.08,23.5,18.5-1.62-.49,1.85,6.69,2,8.25.45,4.75-.76,17.91-4,21.5-7.51,1.74-4.81-3.06-5-3.5-1.56-3.54-2.79-2.14-4.75-3.25-.77-.44,1.12-3.18-4.75-1,4.54-22.08-22.45-24.61-30-14.25-2.13,2.93-7.16,23.57-16,40-22.54,41.89-47.35,57.97-95.75,56.75-47.89-1.21-73.02-22.27-94.25-63.5,27.17,38.39,88.39,25.06,123.25,5,26.29-15.13,47.98-40.21,57.75-69,9.14-3.65,18-9.75,26.25-15v21.5c5.73-1.54,11.55-2.5,17.5-2,.24.02,1.46,1.85,4.25,0Z"/>
          <path class="cls-1" d="M180.39,262c6.24-.98,16.18,6.95,6,16-20.78,18.49-109.19,20.97-129.25-4.75.91-16.52,10.61-7.56,19.25-5.25,31.33,8.38,65.1,8.19,96-2,2.38-.79,7.56-3.93,8-4Z"/>
          <path class="cls-1" d="M275.14,161c18.13,42.14-46.32,83.83-83,82.75,4.53-3.47,13.2-20.51,14.25-21.25,1.59-1.12,19.1-3.87,35-16.5,6.08-4.83,15.68-15.34,17.25-23,5.87-2.18,3.98.56,4.75,1,1.96,1.11,3.19-.29,4.75,3.25.19.44-2.51,5.24,5,3.5,3.24-3.59,4.45-16.75,4-21.5-.15-1.56-3.62-8.74-2-8.25Z"/>
          <path class="cls-1" d="M251.64,142.5c-2.79,1.85-4.01.02-4.25,0-5.95-.5-11.77.46-17.5,2v-21.5c-8.25,5.25-17.11,11.35-26.25,15-40.65,16.21-166.77,20.29-196.5-21.5,1.33-10.82.58-5.2,4-.75,12.43,16.16,60.13,25.6,79.75,27.25,34.18,2.87,116.36,1,140-27.5l-.25,27.75c.52.92,9.17-2.95,21-.75Z"/>
          <path class="cls-6" d="M48.39,119c3.03,4.26-8.97,7.06-9.25,6.25l9.25-6.25Z"/>
        </g>
      </g>
      <g>
        <path class="cls-5" d="M141.64,31.5l2.5,1.5c-7.85,11.7-12.77,13.14-17.5,34-.57,2.51-.62,5.01-1,7.5-.65,4.24-1.87,8.38-2,12.75-.03.96,1,1.13,1,1.75,0,.34-1.86.95-.75,6.5,16.46-.49,49.07,2.68,62,13,18.59,14.84-13.16,24.47-24.5,27-8.89,1.99-55.29,6.77-58,5.5-1.2-.56-.46-2.24-1-2.5-2.46-1.19-50.43-13.65-29-33,12.82-11.57,42.86-9.05,45-10,2.39-1.06-.26-6.62-.25-7,0-.33,1.72,1.18,1-5.75-.78-7.44-2.4-7.8-2.5-8.25-.43-2.02-.52-6.02-2-7,0-5.72-2.96-11.12-3.5-16.75-2.32-24.23,6.59-37.91,26.25-50.75l1.25.25c-32.62,24.1-23.19,46.47-18.75,81.25,3.29-9.48,2.88-19.88,6.75-29.25,3.39-8.23,9.96-13.82,15-20.75Z"/>
        <path class="cls-2" d="M105.39,103c14.89-1.86,11.76,8.9,12.5,9.5,7.2-13.22,33.71-12.2,42.25-2.25,2.79,13.2-38.46,9.92-53.75,26.25,6.41-16.49-3.12-12.23-11.25-22.75-.53-5.74,5.06-10.1,10.25-10.75Z"/>
      </g>
    </g>
  </g>
</svg>